# xmcd CD database file
#
# Track frame offsets:
#	150
#	11902
#	23600
#	34777
#	48812
#	60295
#	77690
#	89077
#	100092
#	112790
#	125160
#	139415
#
# Disc length: 2095 seconds
#
# Revision: 0
# Processed by: cddbd v1.5.2PL0 Copyright (c) Steve Scherf et al.
# Submitted via: CDex 1.70beta2
#
DISCID=94082d0c
DTITLE=Jet Stream - Jet Stream 2
DYEAR=1900
DGENRE=Lounge
TTITLE0=ミスター・ロンリー
TTITLE1=夕陽に赤い帆
TTITLE2=スリーピーラグーン
TTITLE3=ハーバーライト
TTITLE4=チコと鮫
TTITLE5=デサフィナード
TTITLE6=珊瑚礁の彼方に
TTITLE7=いそしぎ
TTITLE8=禁じられた恋の島
TTITLE9=真珠採り
TTITLE10=ハワイの結婚式の歌
TTITLE11=夢幻飛行
EXTD=
EXTT0=
EXTT1=
EXTT2=
EXTT3=
EXTT4=
EXTT5=
EXTT6=
EXTT7=
EXTT8=
EXTT9=
EXTT10=
EXTT11=
PLAYORDER=
